<svg width="79" height="58" viewBox="0 0 79 58" fill="none" xmlns="http://www.w3.org/2000/svg">
<g clip-path="url(#clip0_25368_1340)">
<path d="M44.3601 17.891L42.8802 16.8701C42.6489 16.7008 42.353 16.6209 42.0569 16.6476C41.7607 16.6744 41.4883 16.8057 41.2986 17.013L20.8174 38.268L21.1337 38.5845L26.206 34.358C26.037 34.2965 25.8971 34.1835 25.8107 34.0385C25.7243 33.8935 25.6969 33.7258 25.7331 33.5644C25.7694 33.403 25.867 33.2582 26.0091 33.1551C26.1513 33.0521 26.3288 32.9973 26.511 33.0002C26.6753 33.0002 26.8353 33.0478 26.9674 33.136C27.0996 33.2242 27.197 33.3483 27.2453 33.4902L33.9331 27.8855C34.0355 27.8109 34.163 27.7703 34.2946 27.7703C34.4261 27.7703 34.5537 27.8109 34.6561 27.8855L34.995 28.1101C35.1096 28.1844 35.2509 28.2172 35.391 28.2021C35.531 28.1869 35.6598 28.125 35.7519 28.0284L44.4956 19.1671C44.5886 19.0791 44.6595 18.9741 44.7035 18.8591C44.7475 18.7442 44.7636 18.6221 44.7508 18.501C44.7379 18.3799 44.6964 18.2628 44.629 18.1575C44.5615 18.0523 44.4698 17.9613 44.3601 17.891V17.891Z" fill="#303030"/>
<path d="M53.985 23.8735C49.503 26.7555 44.4819 28.8825 39.1635 30.152C33.885 31.3652 28.4837 32.0904 23.0429 32.3163C23.1524 33.0414 23.3494 33.7535 23.6303 34.4398C26.7031 36.9512 49.8391 32.6634 54.3578 27.7019C55.318 26.6708 53.985 23.8735 53.985 23.8735ZM26.511 34.3581C26.3591 34.3581 26.2106 34.3174 26.0842 34.2411C25.9579 34.1649 25.8594 34.0564 25.8013 33.9296C25.7432 33.8027 25.7279 33.6632 25.7576 33.5285C25.7872 33.3938 25.8604 33.2701 25.9678 33.173C26.0753 33.076 26.2121 33.0098 26.3612 32.9831C26.5102 32.9563 26.6646 32.97 26.805 33.0226C26.9454 33.0751 27.0653 33.1641 27.1497 33.2782C27.2342 33.3924 27.2792 33.5266 27.2792 33.6639C27.2807 33.7555 27.2619 33.8464 27.2238 33.9312C27.1858 34.0161 27.1292 34.0931 27.0576 34.1579C26.986 34.2226 26.9007 34.2737 26.8068 34.3081C26.7129 34.3425 26.6123 34.3595 26.511 34.3581V34.3581Z" fill="#303030"/>
<path d="M4.65156 22.4031L4.83231 21.6987L7.7695 22.301C8.01182 22.7055 8.16165 23.1499 8.21008 23.6078C8.26614 24.0927 8.23178 24.5828 8.10841 25.0574C7.96217 25.7162 7.62717 26.3287 7.13688 26.8338C6.67041 27.3107 6.06895 27.6636 5.39716 27.8547C4.70476 28.0476 3.96834 28.0723 3.26205 27.9262C2.55421 27.788 1.90175 27.4773 1.37547 27.0278C0.857248 26.5959 0.485125 26.0402 0.302267 25.425C0.0994141 24.7567 0.0994141 24.0514 0.302267 23.3832C0.423683 22.883 0.641655 22.4061 0.946189 21.9743C1.23442 21.5816 1.62157 21.2562 2.07588 21.0249L2.48256 21.5864C2.09317 21.8025 1.75891 22.0907 1.50186 22.4321C1.24482 22.7735 1.07082 23.1603 0.991377 23.5669C0.85128 24.0951 0.862947 24.6468 1.02527 25.1697C1.17706 25.6663 1.47816 26.115 1.89513 26.4663C2.32371 26.8406 2.85992 27.0988 3.4428 27.2115C4.00801 27.3549 4.60601 27.3549 5.17122 27.2115C5.71267 27.05 6.19898 26.7652 6.58333 26.3846C6.97832 25.9735 7.25052 25.478 7.37411 24.9451C7.55998 24.2987 7.51249 23.6155 7.23855 22.9952L4.65156 22.4031Z" fill="#303030"/>
<path d="M11.0456 15.9821L8.41342 19.157L9.54311 20.9844L9.02345 21.6174L4.84361 14.7264L5.32937 14.124L13.8359 15.7779L13.305 16.4108L11.0456 15.9821ZM10.3 15.8187L5.78125 14.8999L8.04062 18.5649L10.3 15.8187Z" fill="#303030"/>
<path d="M10.3 9.3969L10.9778 8.9375L15.2819 14.1441L18.8291 11.745L19.2584 12.2656L15.0447 15.1139L10.3 9.3969Z" fill="#303030"/>
<path d="M17.417 5.13976L18.1739 4.8335L21.1563 10.7343L25.1893 9.08042L25.483 9.67254L20.6931 11.6429L17.417 5.13976Z" fill="#303030"/>
<path d="M32.3063 7.48798L32.4758 8.13114L27.0307 9.28476L25.2232 2.32225L30.5101 1.20947L30.6683 1.84243L26.1495 2.79186L26.7934 5.26243L30.7699 4.41508L30.9394 5.04804L26.9516 5.88517L27.6294 8.46804L32.3063 7.48798Z" fill="#303030"/>
<path d="M40.0673 7.74327L38.1807 5.4973C37.97 5.50783 37.7588 5.50783 37.5481 5.4973L35.4243 5.55855L35.5033 7.82494H34.6674L34.4075 0.67867L37.4125 0.668461C38.2621 0.597552 39.1117 0.803988 39.8074 1.25037C40.1006 1.46373 40.3364 1.73449 40.4968 2.04221C40.6573 2.34993 40.7383 2.68658 40.7338 3.02673C40.7668 3.53125 40.6203 4.03207 40.3158 4.45598C39.9912 4.86287 39.5325 5.16659 39.0054 5.32374L40.9823 7.71264L40.0673 7.74327ZM39.2765 4.38452C39.4795 4.21643 39.6371 4.00839 39.737 3.7765C39.8369 3.54461 39.8765 3.29506 39.8526 3.04715C39.8585 2.79792 39.8015 2.55075 39.686 2.32436C39.5705 2.09797 39.3996 1.89828 39.1861 1.7404C38.6654 1.42135 38.0393 1.27359 37.4125 1.32183L35.2661 1.3933L35.4017 4.96643L37.5029 4.90518C38.1436 4.9266 38.772 4.74213 39.2765 4.38452V4.38452Z" fill="#303030"/>
<path d="M46.0433 5.8444L45.6366 8.28434L44.8119 8.17204L45.2299 5.77294L42.8915 0.668457L43.7726 0.790965L45.7722 5.13998L49.1612 1.53622L49.952 1.68935L46.0433 5.8444Z" fill="#303030"/>
<path d="M57.2159 5.41546L58.1988 6.56907L57.7695 6.87534L56.7866 5.6911L56.1653 7.02848L55.6908 6.84472L56.3235 5.50734L54.6967 5.70131V5.21128L56.3009 5.04794L55.3067 3.89433L55.7473 3.58806L56.6172 4.75188L57.2272 3.4043L57.713 3.58806L57.1368 4.95606L58.7636 4.75188V5.25212L57.2159 5.41546Z" fill="#303030"/>
<path d="M60.9891 13.6442C60.7223 13.2725 60.5559 12.8494 60.5033 12.4089L61.1698 12.1435C61.2198 12.5482 61.3663 12.9383 61.5991 13.2869C61.8515 13.6778 62.1807 14.0238 62.5706 14.3078C62.9733 14.6562 63.4871 14.8813 64.0392 14.951C64.2387 14.9677 64.4397 14.9402 64.6248 14.8708C64.8098 14.8014 64.9733 14.6923 65.1011 14.5528C65.1948 14.4594 65.2663 14.3496 65.311 14.2301C65.3557 14.1107 65.3727 13.9843 65.361 13.8586C65.3236 13.6098 65.2314 13.3703 65.0898 13.1542C64.8775 12.8409 64.6475 12.5376 64.4007 12.2456C64.1 11.8895 63.8281 11.5142 63.5874 11.1226C63.4033 10.8295 63.3024 10.4999 63.2936 10.163C63.2929 9.78466 63.4502 9.42003 63.7342 9.14208C63.9804 8.8727 64.3053 8.67109 64.6719 8.56017C65.0815 8.45325 65.5162 8.45325 65.9258 8.56017C66.4536 8.71614 66.9414 8.96607 67.3605 9.29522C67.7083 9.55664 68.016 9.85876 68.2756 10.1936C68.5155 10.5041 68.6951 10.8494 68.8065 11.2145L68.1626 11.5208C68.0503 11.1804 67.8828 10.8571 67.6655 10.5611C67.4491 10.2969 67.1946 10.06 66.9086 9.85671C66.5119 9.50985 65.9997 9.29096 65.4513 9.23396C65.2498 9.21873 65.0473 9.24901 64.8619 9.32208C64.6765 9.39514 64.5142 9.5087 64.3894 9.65253C64.2934 9.7445 64.2204 9.85414 64.1755 9.97396C64.1307 10.0938 64.115 10.2209 64.1296 10.3467C64.156 10.6042 64.2489 10.8524 64.4007 11.0716C64.5589 11.3064 64.7848 11.6126 65.0898 11.9802C65.3922 12.3281 65.6642 12.6967 65.9032 13.0827C66.0912 13.3749 66.196 13.7046 66.2082 14.0424C66.209 14.4207 66.0517 14.7853 65.7677 15.0633C65.5205 15.3364 65.1908 15.5386 64.8187 15.6452C64.4098 15.7568 63.9736 15.7568 63.5648 15.6452C63.0334 15.4897 62.5418 15.2398 62.1188 14.9101C61.6628 14.5515 61.2803 14.123 60.9891 13.6442V13.6442Z" fill="#303030"/>
<path d="M72.3537 15.1344L70.7609 13.0926L71.3483 12.7148L75.0198 17.4518L74.4324 17.8295L72.8395 15.7877L66.9425 19.514L66.4681 18.8913L72.3537 15.1344Z" fill="#303030"/>
<path d="M69.8232 23.5263C70.0249 22.9093 70.4167 22.3569 70.9529 21.9337C71.4775 21.5092 72.1164 21.2169 72.8056 21.0864C73.5081 20.9406 74.2408 20.9653 74.9294 21.1578C75.5941 21.3564 76.1898 21.7083 76.6578 22.1787C77.1445 22.6847 77.4756 23.2972 77.6181 23.9551C77.8052 24.601 77.8052 25.2795 77.6181 25.9254C77.4109 26.5401 77.0199 27.0912 76.4884 27.518C75.9494 27.954 75.2946 28.2565 74.5879 28.396C73.8812 28.5355 73.1465 28.5074 72.4554 28.3143C71.7857 28.1254 71.1873 27.7719 70.727 27.2934C70.2425 26.7901 69.9116 26.1814 69.7668 25.5273C69.5942 24.867 69.6136 24.1777 69.8232 23.5263V23.5263ZM71.3031 26.7728C71.6803 27.1609 72.1691 27.4472 72.7152 27.5997C73.2782 27.7472 73.8731 27.7647 74.4455 27.6506C75.0179 27.5364 75.5494 27.2943 75.9913 26.9463C76.4083 26.5996 76.7162 26.1593 76.8838 25.6702C77.0413 25.1537 77.0567 24.6102 76.9288 24.0871C76.8008 23.564 76.5333 23.0771 76.1495 22.6688C75.7557 22.2787 75.252 21.9929 74.6922 21.8418C74.1222 21.705 73.5225 21.705 72.9525 21.8418C72.3773 21.9416 71.8448 22.1857 71.4161 22.5462C70.9953 22.8942 70.6869 23.3387 70.5236 23.8326C70.3703 24.3509 70.3703 24.8966 70.5236 25.415C70.6474 25.9214 70.9162 26.3897 71.3031 26.7728V26.7728Z" fill="#303030"/>
<path d="M68.9647 35.3791L71.8906 34.3582C71.8906 34.1745 71.9584 33.9907 72.0148 33.7967L72.5684 31.9489L70.1734 31.3874L70.3881 30.6626L78.0248 32.5104L77.2566 35.0933C77.0835 35.8469 76.6189 36.5202 75.9461 36.9922C75.637 37.1862 75.2824 37.3129 74.91 37.3625C74.5377 37.4121 74.1577 37.3832 73.7997 37.278C73.2546 37.1711 72.7661 36.8995 72.4149 36.5078C72.0636 36.1162 71.8707 35.628 71.868 35.1239L68.75 36.1448L68.9647 35.3791ZM72.7491 35.665C72.8815 35.8819 73.061 36.0725 73.2769 36.2251C73.4928 36.3778 73.7406 36.4894 74.0055 36.5533C74.2704 36.6172 74.5468 36.6321 74.8182 36.5969C75.0895 36.5618 75.3503 36.4775 75.5846 36.349C76.0833 35.9871 76.4236 35.477 76.5449 34.9095L77.0871 33.0719L73.2575 32.1429L72.7152 33.9805C72.5068 34.5281 72.5188 35.1246 72.7491 35.665V35.665Z" fill="#303030"/>
<path d="M64.9091 41.9536L64.333 41.5555L67.722 37.5229L74.0257 41.8413L70.7496 45.7514L70.1734 45.3532L72.9412 42.0557L70.6818 40.5142L68.2078 43.4646L67.6429 43.0766L70.1734 40.1262L67.835 38.5234L64.9091 41.9536Z" fill="#303030"/>
<path d="M62.2656 50.0902L60.6502 50.1719V49.6818L62.2656 49.6716L61.3958 48.4567L61.8363 48.2015L62.6949 49.4266L63.3953 48.0586L63.8811 48.2934L63.1129 49.5797L64.7283 49.4981V49.9983H63.0903L63.9602 51.2132L63.5196 51.4684L62.661 50.2433L61.9154 51.5705L61.441 51.3255L62.2656 50.0902Z" fill="#303030"/>
<path d="M47.5797 49.2735L48.9466 49.9575C49.1758 49.5597 49.4956 49.2103 49.8851 48.9322C50.2745 48.6542 50.7247 48.4539 51.206 48.3445C51.655 48.218 52.1272 48.1729 52.5955 48.2118C53.0019 48.24 53.3922 48.367 53.7252 48.5793C54.0262 48.7844 54.2477 49.0703 54.3578 49.396C54.494 49.799 54.47 50.2324 54.29 50.6211C54.0066 51.1493 53.6244 51.6294 53.1603 52.0401C53.5328 52.221 53.8782 52.444 54.1884 52.7037C54.4014 52.9027 54.56 53.1439 54.6515 53.4081C54.7094 53.6141 54.713 53.8295 54.662 54.037C54.611 54.2444 54.5068 54.4382 54.3578 54.6026C54.0562 54.9953 53.6063 55.2748 53.0926 55.3887C52.6415 55.5441 52.1428 55.5441 51.6918 55.3887C51.4912 55.3107 51.3133 55.1918 51.1722 55.0412C51.0311 54.8906 50.9305 54.7125 50.8784 54.5209C50.7599 54.1839 50.7882 53.8188 50.9575 53.5C51.2168 53.0359 51.5561 52.612 51.9629 52.2443L49.2403 50.8763C49.1364 51.3571 49.1136 51.8493 49.1725 52.3362H48.4834C48.437 51.7366 48.5136 51.1343 48.7094 50.5598L47.286 49.8452L47.5797 49.2735ZM49.5453 50.2944L52.539 51.7951C52.9313 51.4565 53.2562 51.0594 53.4993 50.6211C53.6234 50.3251 53.6234 49.9983 53.4993 49.7023C53.448 49.5254 53.3489 49.3628 53.2109 49.2292C53.0728 49.0955 52.9002 48.995 52.7085 48.9366C52.2395 48.7935 51.7315 48.7935 51.2625 48.9366C50.8792 49.028 50.5228 49.1942 50.2183 49.4235C49.9139 49.6528 49.6687 49.9396 49.5002 50.2638L49.5453 50.2944ZM53.793 54.378C53.8668 54.2652 53.913 54.1394 53.9286 54.0091C53.9442 53.8788 53.9288 53.747 53.8833 53.6225C53.8141 53.4209 53.6898 53.2384 53.5218 53.0917C53.2343 52.8725 52.9197 52.6841 52.5842 52.5302C52.2417 52.8363 51.942 53.1791 51.6918 53.5511C51.5552 53.783 51.5228 54.0536 51.6014 54.3065C51.6372 54.4234 51.7 54.532 51.7857 54.6252C51.8714 54.7185 51.978 54.7943 52.0984 54.8476C52.386 54.9456 52.7033 54.9456 52.9909 54.8476C53.298 54.7736 53.5662 54.6036 53.7478 54.3678L53.793 54.378Z" fill="#303030"/>
<path d="M33.8088 57.1443L33.9669 49.998H34.769L34.6448 55.7151L37.8531 50.9577H38.2485L41.2534 55.7967L41.3664 50.1103H42.1685L42.0216 57.2566H41.3325L38.0112 51.9173L34.4979 57.1545L33.8088 57.1443Z" fill="#303030"/>
<path d="M29.8775 49.6714C30.3941 50.1164 30.7637 50.6822 30.9453 51.3059C31.1268 51.9296 31.113 52.5867 30.9055 53.2037C30.7199 53.8355 30.3491 54.4104 29.8323 54.8678C29.33 55.3139 28.7003 55.625 28.0135 55.7662C27.289 55.9139 26.5349 55.8928 25.8219 55.7049C25.1113 55.5481 24.4576 55.2281 23.924 54.7759C23.4151 54.3366 23.0514 53.7782 22.8734 53.1629C22.6997 52.5268 22.7125 51.8608 22.9106 51.2306C23.1087 50.6004 23.4853 50.0278 24.0031 49.5693C24.4965 49.1243 25.1128 48.807 25.788 48.6505C26.5087 48.5032 27.2591 48.5243 27.9683 48.7118C28.6862 48.8762 29.3443 49.207 29.8775 49.6714V49.6714ZM26.0253 49.3141C25.4727 49.4304 24.9676 49.6851 24.568 50.0491C24.1518 50.4237 23.8552 50.8928 23.7094 51.4069C23.5519 51.9179 23.5519 52.458 23.7094 52.9689C23.8426 53.466 24.1285 53.9189 24.5341 54.2756C24.9594 54.6515 25.4846 54.9223 26.0591 55.0617C26.6336 55.194 27.2357 55.194 27.8102 55.0617C28.3632 54.9389 28.8701 54.6852 29.2788 54.3267C29.6927 53.9506 29.9889 53.4821 30.1373 52.9689C30.2952 52.4546 30.2952 51.9111 30.1373 51.3967C29.9927 50.9015 29.7041 50.4503 29.3013 50.09C28.8738 49.7136 28.3438 49.4459 27.765 49.3141C27.1957 49.1719 26.5945 49.1719 26.0253 49.3141V49.3141Z" fill="#303030"/>
<path d="M17.4735 44.5668L17.7785 47.3742C17.9723 47.449 18.1609 47.5343 18.3434 47.6295L20.1848 48.5891L21.4274 46.6086L22.1617 46.9863L18.2078 53.1423L15.6321 51.8049C14.8708 51.4593 14.2702 50.8803 13.9376 50.1715C13.8148 49.8521 13.7734 49.5118 13.8164 49.176C13.8594 48.8401 13.9858 48.5174 14.1861 48.2318C14.4487 47.7844 14.865 47.4261 15.3723 47.2109C15.8875 47.018 16.4574 46.9787 16.999 47.0986L16.6714 44.0972L17.4735 44.5668ZM16.1857 47.7928C15.9203 47.853 15.6712 47.9609 15.4531 48.1101C15.235 48.2593 15.0524 48.4467 14.9164 48.6612C14.7803 48.8757 14.6935 49.1127 14.6612 49.3582C14.6289 49.6037 14.6518 49.8525 14.7284 50.0898C14.9932 50.6182 15.4522 51.0475 16.0275 51.3047L17.8463 52.2541L19.8233 49.1914L18.0045 48.242C17.4817 47.888 16.838 47.711 16.1857 47.7418V47.7928Z" fill="#303030"/>
<path d="M10.7858 39.7787L11.2941 39.3193L15.1915 42.9435L9.54311 47.9255L5.78125 44.4136L6.30091 43.9542L9.49792 46.925L11.4297 45.1589L8.62806 42.5249L9.17031 42.0553L12.0284 44.7097L14.1296 42.8618L10.7858 39.7787Z" fill="#303030"/>
<path d="M2.39219 35.7667L2.66331 34.3579L3.19427 34.4294L2.88925 35.879L4.39174 35.3788L4.57249 35.828L3.04741 36.2976L4.30136 37.2573L3.93986 37.6248L2.73109 36.6039L2.44867 38.0536L1.90642 37.9617L2.22274 36.512L0.708954 37.002L0.539501 36.6039L2.05328 36.1241L0.799329 35.1746L1.17213 34.8071L2.39219 35.7667Z" fill="#303030"/>
</g>
<defs>
<clipPath id="clip0_25368_1340">
<rect width="77.8694" height="56.6189" fill="white" transform="translate(0.132812 0.668457)"/>
</clipPath>
</defs>
</svg>
